<svg width="155.237" height="41.632" xmlns="http://www.w3.org/2000/svg">
 <defs>
  <style>.cls-1{fill:#00bfd8;}.cls-2{fill:#fff;}.cls-3{fill:#393939;}</style>
 </defs>
 <title>logo</title>
 <g>
  <title>background</title>
  <rect fill="none" id="canvas_background" height="402" width="582" y="-1" x="-1"/>
 </g>
 <g>
  <title>Layer 1</title>
  <circle id="svg_1" r="20.816" cy="20.816" cx="20.816" class="cls-1"/>
  <path id="svg_2" d="m19.155,91.414a8.617,8.617 0 0 1 -3.349,-0.613a7.227,7.227 0 0 1 -4.115,-4.341a9.744,9.744 0 0 1 -0.543,-3.311a11.439,11.439 0 0 1 0.954,-4.622a12.191,12.191 0 0 1 2.615,-3.835a12.607,12.607 0 0 1 3.928,-2.619a12.233,12.233 0 0 1 4.886,-0.975a8.317,8.317 0 0 1 5.07,1.4a4.747,4.747 0 0 1 1.89,4.059q0,6.324 -11.3,6.324l-1.386,0q-0.711,0 -1.5,-0.075l0,0.487a5.34,5.34 0 0 0 0.9,3.219a3.276,3.276 0 0 0 2.844,1.235a5.9,5.9 0 0 0 2.825,-0.711a5.493,5.493 0 0 0 2.114,-1.983l3.966,1.234a10.587,10.587 0 0 1 -1.833,2.077a11.972,11.972 0 0 1 -2.376,1.627a12.926,12.926 0 0 1 -2.714,1.051a11.3,11.3 0 0 1 -2.876,0.372zm3.629,-16.686a5.165,5.165 0 0 0 -2.02,0.392a5.682,5.682 0 0 0 -1.664,1.066a7.625,7.625 0 0 0 -1.29,1.576a8.924,8.924 0 0 0 -0.9,1.908c0.4,0.026 0.788,0.039 1.16,0.039l1.16,0a21.126,21.126 0 0 0 3.049,-0.187a7.047,7.047 0 0 0 2.021,-0.562a2.714,2.714 0 0 0 1.1,-0.875a2.073,2.073 0 0 0 0.337,-1.178a1.821,1.821 0 0 0 -0.823,-1.627a3.815,3.815 0 0 0 -2.139,-0.551l0,0l0.009,-0.001z" class="cls-2"/>
  <path id="svg_3" d="m109.567,133.6l0,4.086l-20.1,0l0,-29.304l19.733,0l0,4.086l-15.11,0l0,8.337l13.083,0l0,3.838l-13.083,0l0,8.957l15.477,0z" class="cls-3"/>
  <path id="svg_4" d="m96.565,116.686l-8.255,-21.586l4.664,0l6.191,17.748l6.235,-17.748l4.29,0l-8.255,21.586l-4.87,0z" class="cls-3"/>
  <path id="svg_5" d="m128.865,160.1a11.227,11.227 0 0 1 -4.6,-0.908a10.575,10.575 0 0 1 -5.717,-6a12.028,12.028 0 0 1 0,-8.544a10.55,10.55 0 0 1 2.25,-3.57a10.978,10.978 0 0 1 3.508,-2.435a11.9,11.9 0 0 1 9.121,0a10.993,10.993 0 0 1 3.509,2.435a10.593,10.593 0 0 1 2.249,3.57a12.028,12.028 0 0 1 0,8.544a10.591,10.591 0 0 1 -2.251,3.569a10.986,10.986 0 0 1 -3.509,2.436a11.123,11.123 0 0 1 -4.56,0.903zm-6.439,-11.14a8.162,8.162 0 0 0 0.5,2.889a7.171,7.171 0 0 0 1.362,2.291a6.367,6.367 0 0 0 2.043,1.526a6.055,6.055 0 0 0 5.076,0a6.214,6.214 0 0 0 2.043,-1.548a7.42,7.42 0 0 0 1.362,-2.311a8.617,8.617 0 0 0 0,-5.758a7.39,7.39 0 0 0 -1.362,-2.332a6.226,6.226 0 0 0 -2.043,-1.547a5.851,5.851 0 0 0 -2.538,-0.558a5.589,5.589 0 0 0 -2.5,0.578a6.5,6.5 0 0 0 -2.044,1.57a7.715,7.715 0 0 0 -1.383,2.332a7.932,7.932 0 0 0 -0.516,2.868z" class="cls-3"/>
  <path id="svg_6" d="m130.053,69.56l4.54,0l0,23.9a2.685,2.685 0 0 0 0.619,1.878a2.222,2.222 0 0 0 1.733,0.682a4.052,4.052 0 0 0 1.055,-0.165q0.6,-0.166 1.136,-0.372l0.66,3.55a10.547,10.547 0 0 1 -2.353,0.722a12.76,12.76 0 0 1 -2.436,0.269a4.981,4.981 0 0 1 -3.652,-1.279a4.864,4.864 0 0 1 -1.3,-3.632l0,-25.553l0,0l-0.002,0z" class="cls-3"/>
  <path id="svg_7" d="m259.133,139.1a11.227,11.227 0 0 1 -4.6,-0.908a10.575,10.575 0 0 1 -5.717,-6a12.028,12.028 0 0 1 0,-8.544a10.55,10.55 0 0 1 2.25,-3.57a10.978,10.978 0 0 1 3.508,-2.435a11.9,11.9 0 0 1 9.121,0a10.993,10.993 0 0 1 3.509,2.435a10.593,10.593 0 0 1 2.249,3.57a12.028,12.028 0 0 1 0,8.544a10.591,10.591 0 0 1 -2.253,3.568a10.986,10.986 0 0 1 -3.509,2.436a11.123,11.123 0 0 1 -4.558,0.904zm-6.438,-11.14a8.162,8.162 0 0 0 0.5,2.889a7.171,7.171 0 0 0 1.362,2.291a6.367,6.367 0 0 0 2.043,1.526a6.055,6.055 0 0 0 5.076,0a6.214,6.214 0 0 0 2.043,-1.548a7.42,7.42 0 0 0 1.362,-2.311a8.617,8.617 0 0 0 0,-5.758a7.39,7.39 0 0 0 -1.362,-2.332a6.226,6.226 0 0 0 -2.043,-1.547a5.851,5.851 0 0 0 -2.538,-0.558a5.589,5.589 0 0 0 -2.5,0.578a6.5,6.5 0 0 0 -2.045,1.57a7.715,7.715 0 0 0 -1.383,2.332a7.932,7.932 0 0 0 -0.515,2.868z" class="cls-3"/>
  <text xml:space="preserve" text-anchor="start" font-family="Helvetica, Arial, sans-serif" font-size="24" id="svg_8" y="124.66601" x="247.11853" stroke-width="0" stroke="#000" fill="#000000"/>
  <path id="svg_9" d="m172.832945,126.627683l0,-8.437499l0,0c0,-3.624368 23.113299,-6.5625 51.625003,-6.5625l0,0l0,0c13.691798,0 26.822819,0.691404 36.504395,1.922112c9.681568,1.230707 15.120604,2.899905 15.120604,4.640388l0,0.9375l14.749989,0l-29.499982,3.750001l-29.50001,-3.750001l14.750001,0l0,-0.9375c0,-1.5533 -9.905705,-2.812499 -22.124993,-2.812499l0,0l0,0c-12.219305,0 -22.125001,1.259199 -22.125001,2.812499l0,8.437499l-29.500006,0z" stroke-width="1.5" stroke="#000" fill="#fff"/>
  <path id="svg_10" d="m57.872934,86.12768l0,0c0,-7.455843 22.385765,-13.5 50,-13.5l0,0c13.260819,0 25.97852,1.422316 35.355332,3.954058c9.376822,2.531742 14.644668,5.965519 14.644668,9.545942l0,0c0,7.455842 -22.385765,13.5 -50,13.5l0,0c-27.614231,0 -50,-6.044157 -50,-13.5zm25,0l0,0c0,3.727921 11.192889,6.75 25,6.75c13.807121,0 25,-3.022079 25,-6.75c0,-3.727921 -11.192886,-6.75 -25,-6.75l0,0c-13.807111,0 -25,3.02208 -25,6.75z" stroke-width="1.5" stroke="#000" fill="#fff"/>
  <text stroke="null" transform="matrix(6.464327335357666,0,0,1.4095404148101807,-344.8502829298377,0.8446771055459976) " xml:space="preserve" text-anchor="start" font-family="Helvetica, Arial, sans-serif" font-size="24" id="svg_11" y="19.66601" x="63.11853" fill-opacity="null" stroke-opacity="null" stroke-width="0" fill="#000000"/>
  <text stroke="null" transform="matrix(1,0,0,4.490909099578857,0,-10.527272753417492) " xml:space="preserve" text-anchor="start" font-family="Helvetica, Arial, sans-serif" font-size="24" id="svg_13" y="24.66601" x="57.11853" fill-opacity="null" stroke-opacity="null" stroke-width="0" fill="#000000"/>
  <text stroke="null" transform="matrix(2.4970760345458984,0,0,8.623475074768066,-115.43859735131264,38.593842566013336) " xml:space="preserve" text-anchor="start" font-family="Helvetica, Arial, sans-serif" font-size="24" id="svg_15" y="16.66601" x="77.11853" fill-opacity="null" stroke-opacity="null" stroke-width="0" fill="#000000"/>
  <text font-weight="bold" stroke-dasharray="5,2,2,2" xml:space="preserve" text-anchor="start" font-family="Helvetica, Arial, sans-serif" font-size="50" id="svg_16" y="38.66601" x="44.11853" fill-opacity="null" stroke-opacity="null" stroke-width="0" stroke="null" fill="#000000">AT</text>
  <text stroke="null" transform="rotate(3 20.64872932434084,16.05380058288574) matrix(0.4601922174903753,0,0,0.5190427197359624,54.935270518922685,-4.208936456076662) " xml:space="preserve" text-anchor="start" font-family="Helvetica, Arial, sans-serif" font-size="50" id="svg_17" y="56.96546" x="-95.789294" fill-opacity="null" stroke-opacity="null" stroke-width="0" fill="#000000">at</text>
 </g>
</svg>